<svg width="680" height="156" viewBox="0 0 680 156" fill="none" xmlns="http://www.w3.org/2000/svg">
<path d="M652.775 16.8676C652.775 9.36546 659.075 3.22734 666.275 3.22734C673.7 3.22734 680 9.5928 680 16.8676L679.775 93.4805C679.775 131.673 656.15 156.226 616.775 155.998C577.625 155.998 554 131.446 554 93.2532L554.225 16.8676C554.225 9.36546 560.525 3 567.95 3C575.375 3 581.675 9.36546 581.675 16.8676L581 95.7539C581 116.214 593.15 130.991 616.775 130.991C640.4 130.991 652.55 116.442 652.55 95.7539V16.8676H652.775Z" fill="#231F20"/>
<path d="M479.293 76.6295C479.065 75.7284 478.154 73.9262 478.154 73.9262C470.407 61.7609 453.548 56.3542 448.536 55.4531H448.308C448.08 55.4531 447.625 55.4531 447.397 55.2278H447.169C441.701 54.3267 433.727 53.2002 425.981 55.9036L424.842 56.1289C422.108 56.8048 421.88 57.03 419.374 58.1564L418.69 58.3817C418.463 58.607 418.007 58.607 417.779 59.0576C414.817 60.8598 413.223 63.3379 412.539 66.2666C411.856 69.1952 412.539 71.8986 414.134 74.3767C415.729 77.0801 418.463 78.6571 421.652 79.1076C424.386 79.3329 427.348 79.1076 430.082 77.9812H430.31C430.993 77.3054 433.499 77.0801 435.55 76.8548C437.828 76.6295 440.106 76.8548 442.385 77.0801L444.435 77.3054C444.663 77.3054 445.118 77.5307 445.574 77.5307L446.485 77.7559C451.726 79.5582 454.915 82.2616 456.966 86.0914C459.699 91.7234 460.383 97.3554 459.7 102.312C458.56 113.125 450.814 121.461 440.562 125.516C420.285 133.851 403.198 124.615 399.097 121.911C383.377 113.576 372.897 96.4543 372.897 76.179C372.669 49.5957 388.617 29.3204 413.222 25.2653C424.386 23.6884 436.233 26.1664 446.258 31.5732C454.687 35.8536 461.75 33.6007 464.94 27.2929C468.585 20.5344 465.623 13.776 457.193 9.04504C444.435 1.61075 429.398 -0.867348 414.817 0.25906C387.706 2.06131 363.328 18.0563 352.164 42.1614C339.862 68.97 341.229 95.5532 357.86 120.559C364.695 130.922 373.58 138.807 383.833 144.439C384.972 145.115 386.567 145.566 387.706 146.467C395.908 150.071 408.666 153 421.88 153C430.765 153 440.334 151.423 449.675 147.593C465.623 140.835 478.154 127.768 482.71 111.323C485.9 101.861 486.583 89.4706 479.293 76.6295Z" fill="#231F20"/>
<path d="M296.852 135.485L261.724 58.2395L239.913 10.1856C237.846 5.69461 234.173 3 228.433 3C222.693 3 218.331 5.69461 216.494 10.1856L194.682 56.4431L158.177 135.26C157.258 136.832 157.029 138.853 157.029 140.201C156.57 146.713 161.621 152.775 169.886 152.775C175.626 152.775 178.84 150.081 181.366 145.59L193.305 121.114C193.994 119.991 195.142 118.868 196.978 118.868H216.953H224.53H258.28C259.887 118.868 261.724 119.766 261.954 121.114L273.433 145.59C276.189 150.305 279.173 153 284.913 153C293.179 153 298 146.713 298 140.425C298 139.078 297.77 137.057 296.852 135.485ZM244.734 95.2904H224.53H220.167H210.065C207.31 95.2904 205.473 92.3713 206.392 89.9012L215.576 67.8952L224.071 48.3593C225.678 44.991 230.499 44.991 231.647 48.3593L238.994 65.6497L248.637 89.4521C249.556 92.3713 247.719 95.2904 244.734 95.2904Z" fill="#231F20"/>
<path d="M66.9375 3H55.8939H13.9735C6.53598 3 0.450758 9.35208 0.450758 16.6116L0 139.116C0 146.602 6.31061 153.635 13.9735 152.954C21.411 152.727 27.2708 146.829 27.2708 139.116V100.55C27.2708 98.508 29.0739 96.6931 31.1023 96.6931H55.8939H57.697H66.7121C101.195 96.6931 116.972 76.7294 118.775 53.136L119 46.7839C118.775 22.5099 102.547 3 66.9375 3ZM70.3182 71.2848H57.697H55.8939H31.1023C29.0739 71.2848 27.2708 69.4699 27.2708 67.4282V32.2649C27.2708 30.2232 29.0739 28.4083 31.1023 28.4083H55.8939H70.5436C84.2917 28.4083 91.053 38.1633 91.5038 47.0108L91.053 52.9092C89.4754 61.9835 82.9394 71.2848 70.3182 71.2848Z" fill="#231F20"/>
</svg>
